<svg width="25" height="25" viewBox="0 0 25 25" fill="none" xmlns="http://www.w3.org/2000/svg">
<g clip-path="url(#clip0_1083_415)">
<path d="M12.5 22.9165C13.6458 22.9165 14.5833 21.979 14.5833 20.8332H10.4167C10.4167 21.979 11.3437 22.9165 12.5 22.9165ZM18.75 16.6665V11.4582C18.75 8.26025 17.0417 5.58317 14.0625 4.87484V4.1665C14.0625 3.30192 13.3646 2.604 12.5 2.604C11.6354 2.604 10.9375 3.30192 10.9375 4.1665V4.87484C7.94791 5.58317 6.24999 8.24984 6.24999 11.4582V16.6665L4.90624 18.0103C4.24999 18.6665 4.70833 19.7915 5.63541 19.7915H19.3542C20.2812 19.7915 20.75 18.6665 20.0937 18.0103L18.75 16.6665Z" fill="#76808C"/>
</g>
<defs>
<clipPath id="clip0_1083_415">
<rect width="25" height="25" fill="white"/>
</clipPath>
</defs>
</svg>
