<svg width="25" height="24" viewBox="0 0 25 24" fill="none" xmlns="http://www.w3.org/2000/svg">
<g clip-path="url(#clip0_1212_629)">
<path d="M19.9102 3.99017C17.2702 2.19017 14.0102 3.03017 12.2502 5.09017C10.4902 3.03017 7.23021 2.18017 4.59021 3.99017C3.19021 4.95017 2.31021 6.57017 2.25021 8.28017C2.11021 12.1602 5.55021 15.2702 10.8002 20.0402L10.9002 20.1302C11.6602 20.8202 12.8302 20.8202 13.5902 20.1202L13.7002 20.0202C18.9502 15.2602 22.3802 12.1502 22.2502 8.27017C22.1902 6.57017 21.3102 4.95017 19.9102 3.99017ZM12.3502 18.5502L12.2502 18.6502L12.1502 18.5502C7.39021 14.2402 4.25021 11.3902 4.25021 8.50017C4.25021 6.50017 5.75021 5.00017 7.75021 5.00017C9.29021 5.00017 10.7902 5.99017 11.3202 7.36017H13.1902C13.7102 5.99017 15.2102 5.00017 16.7502 5.00017C18.7502 5.00017 20.2502 6.50017 20.2502 8.50017C20.2502 11.3902 17.1102 14.2402 12.3502 18.5502Z" fill="#F3F3F3"/>
</g>
<defs>
<clipPath id="clip0_1212_629">
<rect width="24" height="24" fill="white" transform="translate(0.25)"/>
</clipPath>
</defs>
</svg>
